<mxfile host="app.diagrams.net" modified="2024-02-28T22:35:49.899Z" agent="Mozilla/5.0 (Windows NT 10.0; Win64; x64) AppleWebKit/537.36 (KHTML, like Gecko) Chrome/121.0.0.0 Safari/537.36" etag="m8IOauOIVpjYnu2b2_0i" version="23.1.6" type="device">
  <diagram id="SDqtW6vDtXjuIiV1nofA" name="Страница — 1">
    <mxGraphModel dx="1150" dy="532" grid="1" gridSize="10" guides="1" tooltips="1" connect="1" arrows="1" fold="1" page="1" pageScale="1" pageWidth="827" pageHeight="1169" math="0" shadow="0">
      <root>
        <mxCell id="0" />
        <mxCell id="1" parent="0" />
        <mxCell id="V1BcTMNRtq71sPn2eTib-2" value="из имеющегося массива строк сформировать новый массив из строк, длина которых меньше, либо равна 3 символам.&amp;nbsp;" style="rounded=1;whiteSpace=wrap;html=1;" parent="1" vertex="1">
          <mxGeometry x="170" y="10" width="460" height="40" as="geometry" />
        </mxCell>
        <mxCell id="V1BcTMNRtq71sPn2eTib-6" style="edgeStyle=orthogonalEdgeStyle;rounded=0;orthogonalLoop=1;jettySize=auto;html=1;" parent="1" source="V1BcTMNRtq71sPn2eTib-3" edge="1">
          <mxGeometry relative="1" as="geometry">
            <mxPoint x="400" y="120" as="targetPoint" />
          </mxGeometry>
        </mxCell>
        <mxCell id="V1BcTMNRtq71sPn2eTib-3" value="Начало" style="rounded=1;whiteSpace=wrap;html=1;" parent="1" vertex="1">
          <mxGeometry x="340" y="70" width="120" height="30" as="geometry" />
        </mxCell>
        <mxCell id="V1BcTMNRtq71sPn2eTib-12" value="no" style="edgeStyle=orthogonalEdgeStyle;rounded=0;orthogonalLoop=1;jettySize=auto;html=1;exitX=1;exitY=0.5;exitDx=0;exitDy=0;entryX=1;entryY=0.5;entryDx=0;entryDy=0;" parent="1" source="9CU0pQAWjdjA7GXx1aGo-4" target="V1BcTMNRtq71sPn2eTib-24" edge="1">
          <mxGeometry relative="1" as="geometry">
            <mxPoint x="527.5" y="515" as="targetPoint" />
            <mxPoint x="540" y="370" as="sourcePoint" />
            <Array as="points">
              <mxPoint x="550" y="370" />
              <mxPoint x="550" y="515" />
            </Array>
          </mxGeometry>
        </mxCell>
        <mxCell id="V1BcTMNRtq71sPn2eTib-14" style="edgeStyle=orthogonalEdgeStyle;rounded=0;orthogonalLoop=1;jettySize=auto;html=1;" parent="1" edge="1">
          <mxGeometry relative="1" as="geometry">
            <mxPoint x="403" y="340" as="targetPoint" />
            <Array as="points">
              <mxPoint x="403" y="300" />
              <mxPoint x="403" y="300" />
            </Array>
            <mxPoint x="403" y="310" as="sourcePoint" />
          </mxGeometry>
        </mxCell>
        <mxCell id="V1BcTMNRtq71sPn2eTib-15" value="yes" style="edgeLabel;html=1;align=center;verticalAlign=middle;resizable=0;points=[];" parent="V1BcTMNRtq71sPn2eTib-14" vertex="1" connectable="0">
          <mxGeometry x="-0.4813" y="2" relative="1" as="geometry">
            <mxPoint x="-2" y="3" as="offset" />
          </mxGeometry>
        </mxCell>
        <mxCell id="V1BcTMNRtq71sPn2eTib-10" value="i &amp;lt; array.Length" style="rhombus;whiteSpace=wrap;html=1;" parent="1" vertex="1">
          <mxGeometry x="335" y="250" width="135" height="50" as="geometry" />
        </mxCell>
        <mxCell id="V1BcTMNRtq71sPn2eTib-24" value="i = i +1" style="rounded=0;whiteSpace=wrap;html=1;" parent="1" vertex="1">
          <mxGeometry x="360" y="500" width="100" height="30" as="geometry" />
        </mxCell>
        <mxCell id="V1BcTMNRtq71sPn2eTib-28" value="" style="endArrow=classic;html=1;rounded=0;exitX=0;exitY=0.5;exitDx=0;exitDy=0;" parent="1" edge="1">
          <mxGeometry width="50" height="50" relative="1" as="geometry">
            <mxPoint x="360" y="515" as="sourcePoint" />
            <mxPoint x="400" y="230" as="targetPoint" />
            <Array as="points">
              <mxPoint x="210" y="515" />
              <mxPoint x="210" y="380" />
              <mxPoint x="210" y="230" />
            </Array>
          </mxGeometry>
        </mxCell>
        <mxCell id="V1BcTMNRtq71sPn2eTib-37" value="newArray[i]" style="shape=document;whiteSpace=wrap;html=1;boundedLbl=1;" parent="1" vertex="1">
          <mxGeometry x="560" y="257" width="150" height="40" as="geometry" />
        </mxCell>
        <mxCell id="V1BcTMNRtq71sPn2eTib-39" value="Конец" style="rounded=1;whiteSpace=wrap;html=1;" parent="1" vertex="1">
          <mxGeometry x="592" y="360" width="90" height="40" as="geometry" />
        </mxCell>
        <mxCell id="rwz0ngQuxjt0QZH2HCq4-13" value="" style="endArrow=classic;html=1;rounded=0;entryX=0.5;entryY=0;entryDx=0;entryDy=0;" parent="1" edge="1" target="V1BcTMNRtq71sPn2eTib-39">
          <mxGeometry width="50" height="50" relative="1" as="geometry">
            <mxPoint x="637" y="290" as="sourcePoint" />
            <mxPoint x="552" y="230" as="targetPoint" />
            <Array as="points" />
          </mxGeometry>
        </mxCell>
        <mxCell id="rwz0ngQuxjt0QZH2HCq4-18" value="" style="endArrow=classic;html=1;rounded=0;exitX=0.534;exitY=1.012;exitDx=0;exitDy=0;exitPerimeter=0;" parent="1" edge="1" source="4pfqJyWqlFU9CB3GQ6XZ-1">
          <mxGeometry width="50" height="50" relative="1" as="geometry">
            <mxPoint x="399.58" y="230" as="sourcePoint" />
            <mxPoint x="400" y="250" as="targetPoint" />
          </mxGeometry>
        </mxCell>
        <mxCell id="rwz0ngQuxjt0QZH2HCq4-22" value="newIndex = newIndex&amp;nbsp;+ 1" style="rounded=0;whiteSpace=wrap;html=1;" parent="1" vertex="1">
          <mxGeometry x="322" y="450" width="160" height="20" as="geometry" />
        </mxCell>
        <mxCell id="9CU0pQAWjdjA7GXx1aGo-1" style="edgeStyle=orthogonalEdgeStyle;rounded=0;orthogonalLoop=1;jettySize=auto;html=1;exitX=0.5;exitY=1;exitDx=0;exitDy=0;" parent="1" source="V1BcTMNRtq71sPn2eTib-3" target="V1BcTMNRtq71sPn2eTib-3" edge="1">
          <mxGeometry relative="1" as="geometry" />
        </mxCell>
        <mxCell id="9CU0pQAWjdjA7GXx1aGo-2" style="edgeStyle=orthogonalEdgeStyle;rounded=0;orthogonalLoop=1;jettySize=auto;html=1;" parent="1" source="9CU0pQAWjdjA7GXx1aGo-4" edge="1">
          <mxGeometry relative="1" as="geometry">
            <mxPoint x="405.5" y="450" as="targetPoint" />
            <Array as="points">
              <mxPoint x="405.5" y="410" />
              <mxPoint x="405.5" y="410" />
            </Array>
          </mxGeometry>
        </mxCell>
        <mxCell id="9CU0pQAWjdjA7GXx1aGo-3" value="yes" style="edgeLabel;html=1;align=center;verticalAlign=middle;resizable=0;points=[];" parent="9CU0pQAWjdjA7GXx1aGo-2" vertex="1" connectable="0">
          <mxGeometry x="-0.4813" y="2" relative="1" as="geometry">
            <mxPoint x="-2" y="9" as="offset" />
          </mxGeometry>
        </mxCell>
        <mxCell id="9CU0pQAWjdjA7GXx1aGo-4" value="array[i].Length &amp;lt;= 3" style="rhombus;whiteSpace=wrap;html=1;" parent="1" vertex="1">
          <mxGeometry x="337.5" y="340" width="135" height="60" as="geometry" />
        </mxCell>
        <mxCell id="9CU0pQAWjdjA7GXx1aGo-11" value="" style="endArrow=classic;html=1;rounded=0;entryX=0;entryY=0.5;entryDx=0;entryDy=0;exitX=0;exitY=0.5;exitDx=0;exitDy=0;" parent="1" source="rwz0ngQuxjt0QZH2HCq4-22" target="9CU0pQAWjdjA7GXx1aGo-4" edge="1">
          <mxGeometry width="50" height="50" relative="1" as="geometry">
            <mxPoint x="470" y="510" as="sourcePoint" />
            <mxPoint x="520" y="460" as="targetPoint" />
            <Array as="points">
              <mxPoint x="260" y="460" />
              <mxPoint x="260" y="420" />
              <mxPoint x="260" y="370" />
            </Array>
          </mxGeometry>
        </mxCell>
        <mxCell id="9CU0pQAWjdjA7GXx1aGo-13" value="&#xa;&lt;span style=&quot;color: rgb(0, 0, 0); font-family: Helvetica; font-size: 11px; font-style: normal; font-variant-ligatures: normal; font-variant-caps: normal; font-weight: 400; letter-spacing: normal; orphans: 2; text-align: center; text-indent: 0px; text-transform: none; widows: 2; word-spacing: 0px; -webkit-text-stroke-width: 0px; background-color: rgb(255, 255, 255); text-decoration-thickness: initial; text-decoration-style: initial; text-decoration-color: initial; float: none; display: inline !important;&quot;&gt;no&lt;/span&gt;&#xa;&#xa;" style="endArrow=classic;html=1;rounded=0;exitX=1;exitY=0.5;exitDx=0;exitDy=0;" parent="1" edge="1">
          <mxGeometry width="50" height="50" relative="1" as="geometry">
            <mxPoint x="470" y="275" as="sourcePoint" />
            <mxPoint x="560" y="275" as="targetPoint" />
            <mxPoint as="offset" />
          </mxGeometry>
        </mxCell>
        <mxCell id="4pfqJyWqlFU9CB3GQ6XZ-1" value="string[] array = { &quot;abc&quot;, &quot;defg&quot;, &quot;hijklm&quot;, &lt;br&gt;&quot;nop&quot;,&amp;nbsp;&amp;nbsp;&quot;123&quot;, &quot;23&quot;, &quot;hello&quot;, &quot;world&quot;, &quot;res&quot;};&lt;br&gt;&lt;br&gt;string[] newArray = new string[array.Length];&lt;br&gt;&lt;br&gt;int newIndex = 0; int i = 0" style="shape=parallelogram;perimeter=parallelogramPerimeter;whiteSpace=wrap;html=1;fixedSize=1;" vertex="1" parent="1">
          <mxGeometry x="250" y="120" width="280" height="100" as="geometry" />
        </mxCell>
      </root>
    </mxGraphModel>
  </diagram>
</mxfile>
